<svg width="48" height="48" viewBox="0 0 48 48" fill="none" xmlns="http://www.w3.org/2000/svg">
<path opacity="1" d="M1.5 24C1.5 11.5736 11.5736 1.5 24 1.5C36.4264 1.5 46.5 11.5736 46.5 24C46.5 36.4264 36.4264 46.5 24 46.5C11.5736 46.5 1.5 36.4264 1.5 24Z" fill="#61759a"/>
<path fill-rule="evenodd" clip-rule="evenodd" d="M19.6569 31.0711L13.2929 24.7071C12.9024 24.3166 12.9024 23.6834 13.2929 23.2929L19.6569 16.9289C20.0474 16.5384 20.6805 16.5384 21.0711 16.9289C21.4616 17.3194 21.4616 17.9526 21.0711 18.3431L16.4142 23L38 23L38 25L16.4142 25L21.0711 29.6568C21.4616 30.0474 21.4616 30.6805 21.0711 31.0711C20.6805 31.4616 20.0474 31.4616 19.6569 31.0711Z" fill="#ffffff"/>
</svg>
