<svg width="48" height="48" viewBox="0 0 48 48" fill="none" xmlns="http://www.w3.org/2000/svg">
<path opacity="1" d="M46.5 24C46.5 36.4264 36.4264 46.5 24 46.5C11.5736 46.5 1.5 36.4264 1.5 24C1.5 11.5736 11.5736 1.5 24 1.5C36.4264 1.5 46.5 11.5736 46.5 24Z" fill="#61759a"/>
<path fill-rule="evenodd" clip-rule="evenodd" d="M28.3431 16.9289L34.7071 23.2929C35.0976 23.6834 35.0976 24.3166 34.7071 24.7071L28.3431 31.0711C27.9526 31.4616 27.3195 31.4616 26.9289 31.0711C26.5384 30.6806 26.5384 30.0474 26.9289 29.6569L31.5858 25H10V23H31.5858L26.9289 18.3432C26.5384 17.9526 26.5384 17.3195 26.9289 16.9289C27.3195 16.5384 27.9526 16.5384 28.3431 16.9289Z" fill="#ffffff"/>
</svg>
