<svg width="120" height="54" viewBox="0 0 120 54" fill="none" xmlns="http://www.w3.org/2000/svg">
<path d="M7.5 23H2.11364V5.54545H7.73864C9.43182 5.54545 10.8807 5.89489 12.0852 6.59375C13.2898 7.28693 14.2131 8.28409 14.8551 9.58523C15.4972 10.8807 15.8182 12.4318 15.8182 14.2386C15.8182 16.0568 15.4943 17.6222 14.8466 18.9347C14.1989 20.2415 13.2557 21.2472 12.017 21.9517C10.7784 22.6506 9.27273 23 7.5 23ZM4.22727 21.125H7.36364C8.80682 21.125 10.0028 20.8466 10.9517 20.2898C11.9006 19.733 12.608 18.9403 13.0739 17.9119C13.5398 16.8835 13.7727 15.6591 13.7727 14.2386C13.7727 12.8295 13.5426 11.6165 13.0824 10.5994C12.6222 9.5767 11.9347 8.79261 11.0199 8.24716C10.1051 7.69602 8.96591 7.42045 7.60227 7.42045H4.22727V21.125ZM18.767 23V5.54545H22.4574V13.2415H22.6875L28.9688 5.54545H33.392L26.9148 13.3608L33.4688 23H29.054L24.2727 15.8239L22.4574 18.0398V23H18.767ZM38.8764 15.4318V23H35.2457V5.54545H38.7741V12.2188H38.9276C39.223 11.446 39.7003 10.8409 40.3594 10.4034C41.0185 9.96023 41.8452 9.73864 42.8395 9.73864C43.7486 9.73864 44.5412 9.9375 45.2173 10.3352C45.8991 10.7273 46.4276 11.2926 46.8026 12.0312C47.1832 12.7642 47.3707 13.642 47.3651 14.6648V23H43.7344V15.3125C43.7401 14.5057 43.5355 13.8778 43.1207 13.429C42.7116 12.9801 42.1378 12.7557 41.3991 12.7557C40.9048 12.7557 40.4673 12.8608 40.0866 13.071C39.7116 13.2812 39.4162 13.5881 39.2003 13.9915C38.9901 14.3892 38.8821 14.8693 38.8764 15.4318ZM50.2223 23V9.90909H53.853V23H50.2223ZM52.0462 8.22159C51.5064 8.22159 51.0433 8.04261 50.657 7.68466C50.2763 7.32102 50.0859 6.88636 50.0859 6.38068C50.0859 5.88068 50.2763 5.4517 50.657 5.09375C51.0433 4.73011 51.5064 4.54829 52.0462 4.54829C52.5859 4.54829 53.0462 4.73011 53.4268 5.09375C53.8132 5.4517 54.0064 5.88068 54.0064 6.38068C54.0064 6.88636 53.8132 7.32102 53.4268 7.68466C53.0462 8.04261 52.5859 8.22159 52.0462 8.22159ZM56.7614 23V9.90909H60.2216V12.2188H60.375C60.6477 11.4517 61.1023 10.8466 61.7386 10.4034C62.375 9.96023 63.1364 9.73864 64.0227 9.73864C64.9205 9.73864 65.6847 9.96307 66.3153 10.4119C66.946 10.8551 67.3665 11.4574 67.5767 12.2188H67.7131C67.9801 11.4688 68.4631 10.8693 69.1619 10.4205C69.8665 9.96591 70.6989 9.73864 71.6591 9.73864C72.8807 9.73864 73.8722 10.1278 74.6335 10.9062C75.4006 11.679 75.7841 12.7756 75.7841 14.196V23H72.1619V14.9119C72.1619 14.1847 71.9688 13.6392 71.5824 13.2756C71.196 12.9119 70.7131 12.7301 70.1335 12.7301C69.4744 12.7301 68.9602 12.9403 68.5909 13.3608C68.2216 13.7756 68.0369 14.3239 68.0369 15.0057V23H64.517V14.8352C64.517 14.1932 64.3324 13.6818 63.9631 13.3011C63.5994 12.9205 63.1193 12.7301 62.5227 12.7301C62.1193 12.7301 61.7557 12.8324 61.4318 13.0369C61.1136 13.2358 60.8608 13.517 60.6733 13.8807C60.4858 14.2386 60.392 14.6591 60.392 15.142V23H56.7614ZM78.652 23V9.90909H82.2827V23H78.652ZM80.4759 8.22159C79.9361 8.22159 79.473 8.04261 79.0866 7.68466C78.706 7.32102 78.5156 6.88636 78.5156 6.38068C78.5156 5.88068 78.706 5.4517 79.0866 5.09375C79.473 4.73011 79.9361 4.54829 80.4759 4.54829C81.0156 4.54829 81.4759 4.73011 81.8565 5.09375C82.2429 5.4517 82.4361 5.88068 82.4361 6.38068C82.4361 6.88636 82.2429 7.32102 81.8565 7.68466C81.4759 8.04261 81.0156 8.22159 80.4759 8.22159ZM91.1058 23.2557C89.7649 23.2557 88.6115 22.9716 87.6456 22.4034C86.6854 21.8295 85.9467 21.0341 85.4297 20.017C84.9183 19 84.6626 17.8295 84.6626 16.5057C84.6626 15.1648 84.9212 13.9886 85.4382 12.9773C85.9609 11.9602 86.7024 11.1676 87.6626 10.5994C88.6229 10.0256 89.7649 9.73864 91.0888 9.73864C92.2308 9.73864 93.2308 9.94602 94.0888 10.3608C94.9467 10.7756 95.6257 11.358 96.1257 12.108C96.6257 12.858 96.9013 13.7386 96.9524 14.75H93.5263C93.4297 14.0966 93.174 13.571 92.7592 13.1733C92.3501 12.7699 91.8132 12.5682 91.1484 12.5682C90.5859 12.5682 90.0945 12.7216 89.674 13.0284C89.2592 13.3295 88.9354 13.7699 88.7024 14.3494C88.4695 14.929 88.353 15.6307 88.353 16.4545C88.353 17.2898 88.4666 18 88.6939 18.5852C88.9268 19.1705 89.2536 19.6165 89.674 19.9233C90.0945 20.2301 90.5859 20.3835 91.1484 20.3835C91.5632 20.3835 91.9354 20.2983 92.2649 20.1278C92.6001 19.9574 92.8757 19.7102 93.0916 19.3864C93.3132 19.0568 93.4581 18.6619 93.5263 18.2017H96.9524C96.8956 19.2017 96.6229 20.0824 96.1342 20.8438C95.6513 21.5994 94.9837 22.1903 94.1314 22.6165C93.2791 23.0426 92.2706 23.2557 91.1058 23.2557ZM102.908 15.4318V23H99.277V5.54545H102.805V12.2188H102.959C103.254 11.446 103.732 10.8409 104.391 10.4034C105.05 9.96023 105.876 9.73864 106.871 9.73864C107.78 9.73864 108.572 9.9375 109.249 10.3352C109.93 10.7273 110.459 11.2926 110.834 12.0312C111.214 12.7642 111.402 13.642 111.396 14.6648V23H107.766V15.3125C107.771 14.5057 107.567 13.8778 107.152 13.429C106.743 12.9801 106.169 12.7557 105.43 12.7557C104.936 12.7557 104.499 12.8608 104.118 13.071C103.743 13.2812 103.447 13.5881 103.232 13.9915C103.021 14.3892 102.913 14.8693 102.908 15.4318Z" fill="black"/>
<path d="M1.76989 47V26.6364H9.80398C11.3419 26.6364 12.6544 26.9115 13.7415 27.4616C14.8352 28.0052 15.6671 28.7775 16.2372 29.7784C16.8139 30.7727 17.1023 31.9427 17.1023 33.2884C17.1023 34.6406 16.8106 35.804 16.2273 36.7784C15.6439 37.7462 14.7988 38.4886 13.6918 39.0057C12.5914 39.5227 11.259 39.7812 9.6946 39.7812H4.31534V36.321H8.99858C9.82055 36.321 10.5033 36.2083 11.0469 35.983C11.5904 35.7576 11.9948 35.4195 12.2599 34.9688C12.5317 34.518 12.6676 33.9579 12.6676 33.2884C12.6676 32.6122 12.5317 32.0421 12.2599 31.5781C11.9948 31.1141 11.5871 30.7628 11.0369 30.5241C10.4934 30.2789 9.80729 30.1562 8.97869 30.1562H6.07528V47H1.76989ZM12.767 37.733L17.8281 47H13.0753L8.12358 37.733H12.767ZM20.1449 47V26.6364H33.8665V30.1861H24.4503V35.0384H33.1605V38.5881H24.4503V43.4503H33.9062V47H20.1449ZM36.5138 30.1861V26.6364H53.2383V30.1861H47.0039V47H42.7482V30.1861H36.5138ZM68.5707 26.6364H72.8761V39.8608C72.8761 41.3456 72.5214 42.6449 71.8121 43.7585C71.1095 44.8722 70.1251 45.7405 68.859 46.3636C67.5929 46.9801 66.118 47.2884 64.4343 47.2884C62.744 47.2884 61.2657 46.9801 59.9996 46.3636C58.7335 45.7405 57.7492 44.8722 57.0465 43.7585C56.3439 42.6449 55.9925 41.3456 55.9925 39.8608V26.6364H60.2979V39.4929C60.2979 40.2685 60.467 40.9579 60.805 41.5611C61.1497 42.1643 61.6336 42.6383 62.2567 42.983C62.8799 43.3277 63.6057 43.5 64.4343 43.5C65.2695 43.5 65.9954 43.3277 66.6119 42.983C67.235 42.6383 67.7156 42.1643 68.0536 41.5611C68.3983 40.9579 68.5707 40.2685 68.5707 39.4929V26.6364ZM87.4652 32.4929C87.3857 31.6908 87.0443 31.0677 86.4411 30.6236C85.8378 30.1794 85.0192 29.9574 83.9851 29.9574C83.2824 29.9574 82.6892 30.0568 82.2053 30.2557C81.7214 30.4479 81.3501 30.7164 81.0916 31.0611C80.8397 31.4058 80.7138 31.7969 80.7138 32.2344C80.7005 32.599 80.7768 32.9171 80.9425 33.1889C81.1148 33.4607 81.3501 33.696 81.6484 33.8949C81.9467 34.0871 82.2914 34.2562 82.6825 34.402C83.0736 34.5412 83.4912 34.6605 83.9354 34.7599L85.7649 35.1974C86.6532 35.3963 87.4685 35.6615 88.2109 35.9929C88.9534 36.3243 89.5964 36.732 90.1399 37.2159C90.6835 37.6998 91.1044 38.2699 91.4027 38.9261C91.7076 39.5824 91.8634 40.3348 91.87 41.1832C91.8634 42.4295 91.5452 43.5099 90.9155 44.4247C90.2924 45.3329 89.3909 46.0388 88.2109 46.5426C87.0376 47.0398 85.6224 47.2884 83.9652 47.2884C82.3213 47.2884 80.8894 47.0365 79.6697 46.5327C78.4567 46.0289 77.5088 45.2831 76.826 44.2955C76.1499 43.3011 75.7952 42.0715 75.7621 40.6065H79.9283C79.9747 41.2893 80.1702 41.8594 80.5149 42.3168C80.8662 42.7675 81.3336 43.1089 81.9169 43.3409C82.5069 43.5663 83.1731 43.679 83.9155 43.679C84.6446 43.679 85.2777 43.5729 85.8146 43.3608C86.3582 43.1487 86.7791 42.8537 87.0774 42.4759C87.3757 42.098 87.5249 41.6638 87.5249 41.1733C87.5249 40.7159 87.389 40.3314 87.1172 40.0199C86.852 39.7083 86.4609 39.4432 85.9439 39.2244C85.4335 39.0057 84.8071 38.8068 84.0646 38.6278L81.8473 38.071C80.1304 37.6534 78.7749 37.0005 77.7805 36.1122C76.7862 35.224 76.2924 34.0275 76.299 32.5227C76.2924 31.2898 76.6205 30.2126 77.2834 29.2912C77.9529 28.3698 78.871 27.6506 80.0376 27.1335C81.2043 26.6165 82.5301 26.358 84.0149 26.358C85.5263 26.358 86.8454 26.6165 87.9723 27.1335C89.1058 27.6506 89.9875 28.3698 90.6172 29.2912C91.2469 30.2126 91.5717 31.2798 91.5916 32.4929H87.4652ZM94.766 47V26.6364H99.0714V35.0384H107.811V26.6364H112.107V47H107.811V38.5881H99.0714V47H94.766Z" fill="black"/>
</svg>
